<svg width="2418" height="671" viewBox="0 0 2418 671" fill="none" xmlns="http://www.w3.org/2000/svg">
<path d="M2388.29 23.4528C2418.59 -4.22721 2472.53 -7.93725 2508.71 15.1628C2519.71 22.1328 2528.25 31.2324 2533.52 41.5924C2559.73 21.7124 2599.42 17.1527 2631.69 29.3727L2638.69 220.793H2698.73V593.243H1628.45V494.923L980.183 670.693L938.057 594.043C921.874 594.093 905.868 591.462 891.045 586.302C888.111 585.272 885.264 584.133 882.506 582.953C885.252 588.163 887.015 593.663 887.72 599.273L791.365 423.913C787.209 425.053 782.94 425.933 778.595 426.543C779.943 442.563 763.949 459.823 738.938 468.663C728.271 472.483 716.684 474.393 704.985 474.233C686.22 473.843 671.057 467.513 664.105 457.193C656.776 462.253 648.439 466.323 639.447 469.243L771.82 576.193L-188.479 513.233V429.603C-203.339 424.513 -216.689 417.013 -227.671 407.583C-229.849 405.703 -231.877 403.762 -233.816 401.802C-233.917 407.442 -235.076 413.043 -237.254 418.423V117.083C-193.869 99.4527 -139.577 104.363 -102.778 130.643C-96.1036 116.353 -84.8826 103.663 -70.2235 93.8229C-22.0524 61.1629 51.684 64.5132 94.465 101.313C108.268 113.013 117.7 127.533 121.705 143.243C125.71 158.953 124.136 175.243 117.159 190.283C125.005 189.823 132.889 190.293 140.558 191.683C159.348 195.003 175.846 203.893 186.676 216.523C208.464 177.223 264.795 154.483 320.989 164.663C380.104 175.373 417.935 218.723 409.573 263.713C428.577 259.683 448.538 259.392 467.706 262.882C484.972 265.902 501.13 272.023 514.945 280.783C528.76 289.543 539.856 300.713 547.374 313.413C551.316 314.533 555.157 315.862 558.859 317.382C569.325 295.852 600.658 280.573 634.258 281.273C637.319 281.343 640.366 281.542 643.401 281.882C673.375 285.292 701.471 300.873 719.354 323.853C726.797 320.593 734.769 318.232 743.018 316.842C774.402 291.442 822.497 281.313 866.046 292.813C864.976 277.593 868.867 262.403 877.343 248.723C905.049 203.493 974.315 183.143 1032.06 203.293C1050.6 209.633 1066.55 219.943 1078.14 233.073C1089.72 246.203 1096.49 261.622 1097.66 277.632C1104.62 274.722 1112.08 272.653 1119.81 271.483C1138.7 268.563 1158.3 271.463 1174.59 279.613C1174.77 236.673 1214.94 197.943 1271.58 189.423C1331.15 180.463 1387.65 208.183 1402.64 252.073C1418.03 242.343 1436.18 235.742 1455.51 232.842C1472.85 230.122 1490.76 230.603 1507.82 234.253C1524.9 237.893 1540.69 244.603 1553.98 253.863C1558.15 253.643 1562.33 253.633 1566.51 253.863C1565.25 230.803 1586.28 206.853 1617.41 196.823C1620.25 195.913 1623.16 195.133 1626.1 194.483C1655.3 188.093 1688.9 193.443 1716.85 208.823C1726.26 199.093 1738.81 191.552 1753.15 187.012L1755.22 186.373C1795.75 174.213 1839.63 187.253 1853.89 215.463C1862.67 202.563 1880.62 193.093 1902.15 191.733L1903.76 191.653C1915.06 191.093 1926.35 192.963 1936.41 197.063C1948.91 179.933 1969.08 168.033 1990.95 165.023C1993.16 164.723 1995.39 164.523 1997.63 164.423C2022.22 163.343 2045.59 174.003 2053.84 189.603C2056.52 188.423 2059.29 187.383 2062.15 186.503C2067.33 177.073 2075.15 168.702 2085.03 162.052C2094.92 155.402 2106.59 150.643 2119.16 148.143C2133.12 145.263 2147.74 145.132 2161.78 147.762C2154.44 114.912 2180.98 82.5333 2224.01 73.6833C2264.92 65.2633 2306.77 80.9732 2323.81 109.393C2331.43 99.9632 2343.27 93.1928 2356.94 90.4528C2362.52 89.3028 2368.29 88.8231 2374.05 89.0231C2368.53 78.1231 2366.93 66.2125 2369.44 54.6325C2371.94 43.0525 2378.47 32.253 2388.25 23.443L2388.29 23.4528Z" fill="#2F2F2F"/>
</svg>
