<svg width="2418" height="671" viewBox="0 0 2418 671" fill="none" xmlns="http://www.w3.org/2000/svg">
<path d="M2388.29 23.7594C2418.59 -3.92057 2472.53 -7.63061 2508.71 15.4694C2519.71 22.4394 2528.25 31.5401 2533.52 41.9001C2559.73 22.0201 2599.43 17.4594 2631.69 29.6794L2638.69 221.099H2698.73V593.549H1628.45V495.23L980.185 671L938.058 594.349C921.876 594.399 905.869 591.77 891.046 586.61C888.112 585.58 885.266 584.439 882.508 583.259C885.253 588.469 887.016 593.97 887.721 599.58L791.367 424.219C787.211 425.359 782.941 426.239 778.596 426.849C779.944 442.869 763.95 460.129 738.939 468.969C728.272 472.789 716.686 474.7 704.986 474.54C686.221 474.15 671.058 467.82 664.107 457.5C656.777 462.56 648.44 466.629 639.448 469.549L771.821 576.5L-188.478 513.54V429.91C-203.338 424.82 -216.688 417.319 -227.669 407.889C-229.848 406.009 -231.876 404.07 -233.815 402.11C-233.916 407.75 -235.074 413.35 -237.253 418.73V117.389C-193.868 99.7593 -139.576 104.67 -102.777 130.95C-96.1024 116.66 -84.8814 103.97 -70.2223 94.1296C-22.0512 61.4696 51.6852 64.8198 94.4662 101.62C108.269 113.32 117.702 127.839 121.706 143.549C125.711 159.259 124.137 175.55 117.16 190.59C125.006 190.13 132.89 190.6 140.559 191.99C159.349 195.31 175.847 204.2 186.678 216.83C208.465 177.53 264.797 154.789 320.99 164.969C380.105 175.679 417.937 219.029 409.574 264.019C428.578 259.989 448.539 259.7 467.707 263.19C484.973 266.21 501.131 272.329 514.946 281.09C528.762 289.85 539.857 301.019 547.375 313.719C551.317 314.839 555.158 316.17 558.861 317.69C569.326 296.16 600.659 280.88 634.26 281.58C637.32 281.65 640.367 281.85 643.403 282.19C673.376 285.6 701.472 301.18 719.355 324.16C726.798 320.9 734.77 318.54 743.019 317.15C774.403 291.75 822.498 281.62 866.047 293.12C864.977 277.9 868.869 262.71 877.344 249.03C905.05 203.8 974.316 183.449 1032.06 203.599C1050.6 209.939 1066.55 220.25 1078.14 233.38C1089.72 246.51 1096.49 261.93 1097.66 277.94C1104.62 275.03 1112.08 272.96 1119.81 271.79C1138.7 268.87 1158.3 271.77 1174.59 279.92C1174.77 236.98 1214.94 198.25 1271.58 189.73C1331.15 180.77 1387.66 208.49 1402.64 252.38C1418.03 242.65 1436.18 236.05 1455.51 233.15C1472.85 230.43 1490.76 230.909 1507.82 234.559C1524.9 238.199 1540.69 244.91 1553.98 254.17C1558.15 253.95 1562.33 253.94 1566.51 254.17C1565.25 231.11 1586.28 207.16 1617.42 197.13C1620.25 196.22 1623.16 195.44 1626.11 194.79C1655.3 188.4 1688.9 193.75 1716.86 209.13C1726.26 199.4 1738.81 191.86 1753.15 187.32L1755.22 186.679C1795.76 174.519 1839.63 187.559 1853.89 215.769C1862.67 202.869 1880.63 193.4 1902.15 192.04L1903.76 191.96C1915.06 191.4 1926.35 193.27 1936.42 197.37C1948.91 180.24 1969.08 168.34 1990.95 165.33C1993.16 165.03 1995.39 164.83 1997.63 164.73C2022.22 163.65 2045.59 174.31 2053.84 189.91C2056.52 188.73 2059.29 187.689 2062.15 186.809C2067.33 177.379 2075.15 169.01 2085.03 162.36C2094.92 155.71 2106.59 150.95 2119.16 148.45C2133.12 145.57 2147.74 145.44 2161.78 148.07C2154.44 115.22 2180.99 82.8399 2224.01 73.9899C2264.92 65.5699 2306.77 81.2799 2323.81 109.7C2331.43 100.27 2343.27 93.4994 2356.95 90.7594C2362.52 89.6094 2368.29 89.1298 2374.05 89.3298C2368.53 78.4297 2366.93 66.5201 2369.44 54.9401C2371.94 43.3601 2378.47 32.5597 2388.25 23.7497L2388.29 23.7594Z" fill="#08BAAD"/>
</svg>
