<svg width="2418" height="2328" viewBox="0 0 2418 2328" fill="none" xmlns="http://www.w3.org/2000/svg">
<path d="M2431.69 2325.06C2420.86 2335.36 2408.98 2315.24 2392.08 2315.24C2375.18 2315.24 2375.18 2327.22 2358.27 2327.22C2341.37 2327.22 2341.37 2315.24 2324.46 2315.24C2307.56 2315.24 2307.56 2327.22 2290.66 2327.22C2273.76 2327.22 2273.76 2315.24 2256.85 2315.24C2239.95 2315.24 2239.95 2327.22 2223.03 2327.22C2206.13 2327.22 2206.13 2315.24 2189.22 2315.24C2172.32 2315.24 2172.32 2327.22 2155.41 2327.22C2138.51 2327.22 2138.51 2315.24 2121.6 2315.24C2104.69 2315.24 2104.7 2327.22 2087.79 2327.22C2070.87 2327.22 2070.89 2315.24 2053.97 2315.24C2037.06 2315.24 2037.07 2327.22 2020.16 2327.22C2003.25 2327.22 2003.26 2315.24 1986.35 2315.24C1969.45 2315.24 1969.45 2327.22 1952.54 2327.22C1935.64 2327.22 1935.64 2315.24 1918.72 2315.24C1901.82 2315.24 1901.82 2327.22 1884.91 2327.22C1868.01 2327.22 1868.01 2315.24 1851.1 2315.24C1834.2 2315.24 1834.2 2327.22 1817.29 2327.22C1800.39 2327.22 1800.39 2315.24 1783.48 2315.24C1766.58 2315.24 1766.58 2327.22 1749.66 2327.22C1732.75 2327.22 1732.76 2315.24 1715.85 2315.24C1698.95 2315.24 1698.95 2327.22 1682.04 2327.22C1665.14 2327.22 1665.14 2315.24 1648.23 2315.24C1631.33 2315.24 1631.33 2327.22 1614.41 2327.22C1597.5 2327.22 1597.51 2315.24 1580.6 2315.24C1563.7 2315.24 1563.7 2327.22 1546.79 2327.22C1529.89 2327.22 1529.89 2315.24 1512.98 2315.24C1496.08 2315.24 1496.08 2327.22 1479.17 2327.22C1462.25 2327.22 1462.27 2315.24 1445.35 2315.24C1428.45 2315.24 1428.45 2327.22 1411.54 2327.22C1394.64 2327.22 1394.64 2315.24 1377.73 2315.24C1360.82 2315.24 1360.83 2327.22 1343.92 2327.22C1327 2327.22 1327.02 2315.24 1310.1 2315.24C1293.2 2315.24 1293.2 2327.22 1276.29 2327.22C1259.39 2327.22 1259.39 2315.24 1242.48 2315.24C1225.57 2315.24 1225.58 2327.22 1208.67 2327.22C1191.76 2327.22 1191.76 2315.24 1174.86 2315.24C1157.96 2315.24 1157.96 2327.22 1141.04 2327.22C1124.14 2327.22 1124.14 2315.24 1107.23 2315.24C1090.32 2315.24 1090.33 2327.22 1073.42 2327.22C1056.52 2327.22 1056.52 2315.24 1039.61 2315.24C1022.71 2315.24 1022.71 2327.22 1005.81 2327.22C988.894 2327.22 988.894 2315.24 971.994 2315.24C955.095 2315.24 955.095 2327.22 938.195 2327.22C921.282 2327.22 921.282 2315.24 904.383 2315.24C887.483 2315.24 887.483 2327.22 870.57 2327.22C853.658 2327.22 853.671 2315.24 836.758 2315.24C819.858 2315.24 819.858 2327.22 802.946 2327.22C786.046 2327.22 786.046 2315.24 769.134 2315.24C752.234 2315.24 752.234 2327.22 735.321 2327.22C718.409 2327.22 718.409 2315.24 701.509 2315.24C684.609 2315.24 684.609 2327.22 667.697 2327.22C650.797 2327.22 650.797 2315.24 633.885 2315.24C616.985 2315.24 616.985 2327.22 600.072 2327.22C583.16 2327.22 583.173 2315.24 566.26 2315.24C549.348 2315.24 549.348 2327.22 532.448 2327.22C515.536 2327.22 515.536 2315.24 498.636 2315.24C481.723 2315.24 481.723 2327.22 464.823 2327.22C447.911 2327.22 447.911 2315.24 431.011 2315.24C414.099 2315.24 414.099 2327.22 397.199 2327.22C380.287 2327.22 380.287 2315.24 363.387 2315.24C346.474 2315.24 346.474 2327.22 329.575 2327.22C312.675 2327.22 312.662 2315.24 295.762 2315.24C278.863 2315.24 278.863 2327.22 261.95 2327.22C245.038 2327.22 245.038 2315.24 228.138 2315.24C211.225 2315.24 211.225 2327.22 194.326 2327.22C177.413 2327.22 177.413 2315.24 160.513 2315.24C143.601 2315.24 143.601 2327.22 126.689 2327.22C109.776 2327.22 109.776 2315.24 92.8763 2315.24C75.9765 2315.24 75.9639 2327.22 59.0515 2327.22C42.1391 2327.22 42.1391 2315.24 25.2267 2315.24C8.31427 2315.24 -3.56094 2335.37 -14.4035 2325.06C-27.3869 2312.73 -1.04234 2305.15 -1.04234 2289.08C-1.04234 2273.01 -16.154 2273.01 -16.154 2256.94C-16.154 2240.86 -1.04234 2240.87 -1.04234 2224.8C-1.04234 2208.73 -16.154 2208.73 -16.154 2192.66C-16.154 2176.59 -1.04234 2176.59 -1.04234 2160.53C-1.04234 2144.46 -16.154 2144.46 -16.154 2128.38C-16.154 2112.3 -1.04234 2112.31 -1.04234 2096.24C-1.04234 2080.17 -16.154 2080.17 -16.154 2064.1C-16.154 2048.04 -1.04234 2048.04 -1.04234 2031.96C-1.04234 2015.88 -16.154 2015.89 -16.154 1999.82C-16.154 1983.75 -1.04234 1983.75 -1.04234 1967.68C-1.04234 1951.62 -16.154 1951.62 -16.154 1935.54C-16.154 1919.46 -1.04234 1919.47 -1.04234 1903.39C-1.04234 1887.31 -16.154 1887.32 -16.154 1871.25C-16.154 1855.19 -1.04234 1855.19 -1.04234 1839.11C-1.04234 1823.03 -16.154 1823.04 -16.154 1806.96C-16.154 1790.88 -1.04234 1790.89 -1.04234 1774.82C-1.04234 1758.75 -16.154 1758.76 -16.154 1742.68C-16.154 1726.6 -1.04234 1726.61 -1.04234 1710.54C-1.04234 1694.47 -16.154 1694.47 -16.154 1678.39C-16.154 1662.31 -1.04234 1662.32 -1.04234 1646.25C-1.04234 1630.17 -16.154 1630.18 -16.154 1614.11C-16.154 1598.04 -1.04234 1598.04 -1.04234 1581.96C-1.04234 1565.88 -16.154 1565.89 -16.154 1549.83C-16.154 1533.76 -1.04234 1533.76 -1.04234 1517.68C-1.04234 1501.6 -16.154 1501.61 -16.154 1485.53C-16.154 1469.45 -1.04234 1469.46 -1.04234 1453.39C-1.04234 1437.31 -16.154 1437.32 -16.154 1421.24C-16.154 1405.17 -1.04234 1405.17 -1.04234 1389.09C-1.04234 1373.01 -16.154 1373.02 -16.154 1356.95C-16.154 1340.87 -1.04234 1340.88 -1.04234 1324.8C-1.04234 1308.72 -16.154 1308.73 -16.154 1292.65C-16.154 1276.57 -1.04234 1276.58 -1.04234 1260.5C-1.04234 1244.43 -16.154 1244.44 -16.154 1228.36C-16.154 1212.28 -1.04234 1212.29 -1.04234 1196.21C-1.04234 1180.13 -16.154 1180.14 -16.154 1164.07C-16.154 1147.99 -1.04234 1148 -1.04234 1131.92C-1.04234 1115.85 -16.154 1115.85 -16.154 1099.77C-16.154 1083.69 -1.04234 1083.7 -1.04234 1067.62C-1.04234 1051.55 -16.154 1051.56 -16.154 1035.48C-16.154 1019.4 -1.04234 1019.41 -1.04234 1003.33C-1.04234 987.253 -16.154 987.262 -16.154 971.184C-16.154 955.106 -1.04234 955.116 -1.04234 939.038C-1.04234 922.96 -16.154 922.969 -16.154 906.891C-16.154 890.812 -1.04234 890.822 -1.04234 874.743C-1.04234 858.665 -16.154 858.676 -16.154 842.597C-16.154 826.519 -1.04234 826.528 -1.04234 810.45C-1.04234 794.372 -16.154 794.382 -16.154 778.304C-16.154 762.225 -1.04234 762.235 -1.04234 746.166C-1.04234 730.098 -16.154 730.099 -16.154 714.02C-16.154 697.942 -1.04234 697.951 -1.04234 681.873C-1.04234 665.795 -16.154 665.805 -16.154 649.727C-16.154 633.658 -1.04234 633.658 -1.04234 617.58C-1.04234 601.511 -16.154 601.512 -16.154 585.433C-16.154 569.355 -1.04234 569.365 -1.04234 553.286C-1.04234 537.208 -16.154 537.218 -16.154 521.14C-16.154 505.062 -1.04234 505.061 -1.04234 488.993C-1.04234 472.924 -16.154 472.924 -16.154 456.846C-16.154 440.767 -1.04234 440.768 -1.04234 424.699C-1.04234 408.631 -16.154 408.63 -16.154 392.552C-16.154 376.474 -1.04234 376.484 -1.04234 360.406C-1.04234 344.328 -16.154 344.327 -16.154 328.259C-16.154 312.19 -1.04234 312.181 -1.04234 296.112C-1.04234 280.044 -16.154 280.034 -16.154 263.965C-16.154 247.897 -1.04234 247.897 -1.04234 231.819C-1.04234 215.741 -16.154 215.75 -16.154 199.672C-16.154 183.594 -1.04234 183.593 -1.04234 167.525C-1.04234 151.456 -16.154 151.447 -16.154 135.378C-16.154 119.31 -1.04234 119.3 -1.04234 103.231C-1.04234 87.1629 -16.154 87.1534 -16.154 71.085C-16.154 55.0167 -1.04234 55.0065 -1.04234 38.9281C-1.04234 22.8497 -27.3869 15.2799 -14.4035 2.93646C-3.57353 -7.35969 8.30168 12.7631 25.2015 12.7631C42.1013 12.7631 42.1013 0.779205 59.0137 0.779205C75.9261 0.779205 75.9136 12.7631 92.826 12.7631C109.738 12.7631 109.726 0.779205 126.626 0.779205C143.525 0.779205 143.525 12.7631 160.438 12.7631C177.35 12.7631 177.338 0.779205 194.25 0.779205C211.162 0.779205 211.15 12.7631 228.062 12.7631C244.975 12.7631 244.962 0.779205 261.875 0.779205C278.787 0.779205 278.774 12.7631 295.687 12.7631C312.599 12.7631 312.587 0.779205 329.499 0.779205C346.411 0.779205 346.399 12.7631 363.311 12.7631C380.224 12.7631 380.211 0.779205 397.123 0.779205C414.036 0.779205 414.023 12.7631 430.936 12.7631C447.848 12.7631 447.836 0.779205 464.748 0.779205C481.66 0.779205 481.648 12.7631 498.56 12.7631C515.473 12.7631 515.46 0.779205 532.372 0.779205C549.285 0.779205 549.272 12.7631 566.185 12.7631C583.097 12.7631 583.084 0.779205 599.997 0.779205C616.909 0.779205 616.897 12.7631 633.809 12.7631C650.722 12.7631 650.709 0.779205 667.621 0.779205C684.534 0.779205 684.521 12.7631 701.434 12.7631C718.346 12.7631 718.333 0.779205 735.246 0.779205C752.158 0.779205 752.146 12.7631 769.058 12.7631C785.971 12.7631 785.958 0.779205 802.87 0.779205C819.783 0.779205 819.77 12.7631 836.683 12.7631C853.595 12.7631 853.582 0.779205 870.495 0.779205C887.407 0.779205 887.395 12.7631 904.307 12.7631C921.219 12.7631 921.207 0.779205 938.119 0.779205C955.032 0.779205 955.019 12.7631 971.931 12.7631C988.844 12.7631 988.831 0.779205 1005.74 0.779205C1022.66 0.779205 1022.64 12.7631 1039.56 12.7631C1056.47 12.7631 1056.46 0.779205 1073.37 0.779205C1090.28 0.779205 1090.27 12.7631 1107.18 12.7631C1124.09 12.7631 1124.08 0.779205 1140.99 0.779205C1157.91 0.779205 1157.89 12.7631 1174.8 12.7631C1191.72 12.7631 1191.7 0.779205 1208.62 0.779205C1225.53 0.779205 1225.53 12.7631 1242.43 12.7631C1259.33 12.7631 1259.33 0.779205 1276.24 0.779205C1293.15 0.779205 1293.14 12.7631 1310.05 12.7631C1326.97 12.7631 1326.95 0.779205 1343.87 0.779205C1360.78 0.779205 1360.77 12.7631 1377.68 12.7631C1394.59 12.7631 1394.58 0.779205 1411.48 0.779205C1428.38 0.779205 1428.39 12.7631 1445.29 12.7631C1462.19 12.7631 1462.19 0.779205 1479.09 0.779205C1495.99 0.779205 1496 12.7631 1512.9 12.7631C1529.8 12.7631 1529.8 0.779205 1546.71 0.779205C1563.63 0.779205 1563.61 12.7631 1580.53 12.7631C1597.44 12.7631 1597.43 0.779205 1614.34 0.779205C1631.25 0.779205 1631.24 12.7631 1648.15 12.7631C1665.06 12.7631 1665.05 0.779205 1681.96 0.779205C1698.88 0.779205 1698.88 12.7631 1715.78 12.7631C1732.68 12.7631 1732.68 0.779205 1749.59 0.779205C1766.5 0.779205 1766.49 12.7631 1783.4 12.7631C1800.31 12.7631 1800.3 0.779205 1817.21 0.779205C1834.12 0.779205 1834.11 12.7631 1851.02 12.7631C1867.94 12.7631 1867.94 0.779205 1884.84 0.779205C1901.74 0.779205 1901.75 12.7631 1918.65 12.7631C1935.55 12.7631 1935.56 0.779205 1952.46 0.779205C1969.36 0.779205 1969.37 12.7631 1986.27 12.7631C2003.17 12.7631 2003.19 0.779205 2020.09 0.779205C2036.99 0.779205 2037 12.7631 2053.9 12.7631C2070.8 12.7631 2070.81 0.779205 2087.71 0.779205C2104.61 0.779205 2104.62 12.7631 2121.52 12.7631C2138.42 12.7631 2138.42 0.779205 2155.33 0.779205C2172.25 0.779205 2172.25 12.7631 2189.15 12.7631C2206.05 12.7631 2206.06 0.779205 2222.96 0.779205C2239.86 0.779205 2239.87 12.7631 2256.77 12.7631C2273.67 12.7631 2273.68 0.779205 2290.6 0.779205C2307.51 0.779205 2307.51 12.7631 2324.41 12.7631C2341.31 12.7631 2341.32 0.779205 2358.23 0.779205C2375.15 0.779205 2375.15 12.7631 2392.06 12.7631C2408.97 12.7631 2420.85 -7.36968 2431.69 2.93646C2444.67 15.2699 2418.33 22.85 2418.33 38.9183C2418.33 54.9867 2433.44 54.9862 2433.44 71.0646C2433.44 87.1429 2418.33 87.1336 2418.33 103.202C2418.33 119.27 2433.44 119.27 2433.44 135.338C2433.44 151.407 2418.33 151.407 2418.33 167.475C2418.33 183.543 2433.44 183.544 2433.44 199.622C2433.44 215.701 2418.33 215.69 2418.33 231.759C2418.33 247.827 2433.44 247.827 2433.44 263.895C2433.44 279.963 2418.33 279.964 2418.33 296.042C2418.33 312.121 2433.44 312.11 2433.44 328.179C2433.44 344.247 2418.33 344.248 2418.33 360.316C2418.33 376.385 2433.44 376.384 2433.44 392.462C2433.44 408.541 2418.33 408.531 2418.33 424.61C2418.33 440.688 2433.44 440.678 2433.44 456.746C2433.44 472.814 2418.33 472.815 2418.33 488.893C2418.33 504.972 2433.44 504.961 2433.44 521.039C2433.44 537.118 2418.33 537.108 2418.33 553.176C2418.33 569.244 2433.44 569.245 2433.44 585.323C2433.44 601.402 2418.33 601.391 2418.33 617.46C2418.33 633.528 2433.44 633.528 2433.44 649.607C2433.44 665.685 2418.33 665.675 2418.33 681.753C2418.33 697.831 2433.44 697.822 2433.44 713.89C2433.44 729.959 2418.33 729.958 2418.33 746.037C2418.33 762.115 2433.44 762.106 2433.44 778.174C2433.44 794.243 2418.33 794.242 2418.33 810.32C2418.33 826.399 2433.44 826.389 2433.44 842.468C2433.44 858.546 2418.33 858.535 2418.33 874.614C2418.33 890.692 2433.44 890.683 2433.44 906.761C2433.44 922.839 2418.33 922.829 2418.33 938.907C2418.33 954.986 2433.44 954.976 2433.44 971.054C2433.44 987.133 2418.33 987.123 2418.33 1003.2C2418.33 1019.28 2433.44 1019.27 2433.44 1035.35C2433.44 1051.43 2418.33 1051.42 2418.33 1067.5C2418.33 1083.57 2433.44 1083.56 2433.44 1099.64C2433.44 1115.72 2418.33 1115.71 2418.33 1131.79C2418.33 1147.87 2433.44 1147.86 2433.44 1163.93C2433.44 1180.01 2418.33 1180 2418.33 1196.08C2418.33 1212.16 2433.44 1212.15 2433.44 1228.23C2433.44 1244.31 2418.33 1244.3 2418.33 1260.38C2418.33 1276.45 2433.44 1276.44 2433.44 1292.52C2433.44 1308.6 2418.33 1308.59 2418.33 1324.67C2418.33 1340.75 2433.44 1340.74 2433.44 1356.82C2433.44 1372.89 2418.33 1372.88 2418.33 1388.96C2418.33 1405.04 2433.44 1405.03 2433.44 1421.11C2433.44 1437.19 2418.33 1437.18 2418.33 1453.26C2418.33 1469.33 2433.44 1469.32 2433.44 1485.4C2433.44 1501.48 2418.33 1501.47 2418.33 1517.55C2418.33 1533.63 2433.44 1533.62 2433.44 1549.7C2433.44 1565.77 2418.33 1565.76 2418.33 1581.83C2418.33 1597.9 2433.44 1597.9 2433.44 1613.98C2433.44 1630.06 2418.33 1630.05 2418.33 1646.13C2418.33 1662.21 2433.44 1662.19 2433.44 1678.27C2433.44 1694.35 2418.33 1694.34 2418.33 1710.42C2418.33 1726.5 2433.44 1726.49 2433.44 1742.57C2433.44 1758.64 2418.33 1758.64 2418.33 1774.71C2418.33 1790.79 2433.44 1790.78 2433.44 1806.86C2433.44 1822.94 2418.33 1822.94 2418.33 1839.01C2418.33 1855.08 2433.44 1855.08 2433.44 1871.15C2433.44 1887.23 2418.33 1887.23 2418.33 1903.3C2418.33 1919.37 2433.44 1919.37 2433.44 1935.45C2433.44 1951.53 2418.33 1951.52 2418.33 1967.59C2418.33 1983.67 2433.44 1983.67 2433.44 1999.74C2433.44 2015.81 2418.33 2015.82 2418.33 2031.89C2418.33 2047.96 2433.44 2047.97 2433.44 2064.03C2433.44 2080.1 2418.33 2080.1 2418.33 2096.18C2418.33 2112.26 2433.44 2112.25 2433.44 2128.33C2433.44 2144.41 2418.33 2144.41 2418.33 2160.48C2418.33 2176.54 2433.44 2176.55 2433.44 2192.62C2433.44 2208.69 2418.33 2208.7 2418.33 2224.77C2418.33 2240.84 2433.44 2240.85 2433.44 2256.91C2433.44 2272.98 2413.35 2275.08 2418.58 2290.62C2424.82 2309.18 2444.66 2312.72 2431.69 2325.06Z" fill="#804A9D"/>
</svg>
