<svg width="1920" height="127" viewBox="0 0 1920 127" fill="none" xmlns="http://www.w3.org/2000/svg">
<path d="M1920 105.71H1919.79V105.93C1919.79 117.42 1910.46 126.73 1898.95 126.73C1887.44 126.73 1878.11 117.42 1878.11 105.93C1878.11 105.86 1878.11 105.78 1878.11 105.71V105.93C1878.11 117.42 1868.78 126.73 1857.27 126.73C1845.76 126.73 1836.43 117.42 1836.43 105.93C1836.43 105.86 1836.43 105.78 1836.43 105.71V105.93C1836.43 117.42 1827.1 126.73 1815.59 126.73C1804.08 126.73 1794.75 117.42 1794.75 105.93C1794.75 105.86 1794.75 105.78 1794.75 105.71V105.93C1794.75 117.42 1785.42 126.73 1773.91 126.73C1762.4 126.73 1753.07 117.42 1753.07 105.93C1753.07 105.86 1753.07 105.78 1753.07 105.71V105.93C1753.07 117.42 1743.62 126.73 1731.96 126.73C1720.3 126.73 1710.85 117.42 1710.85 105.93C1710.85 105.86 1710.85 105.78 1710.85 105.71V105.93C1710.85 117.42 1701.52 126.73 1690.01 126.73C1678.5 126.73 1669.17 117.42 1669.17 105.93C1669.17 105.86 1669.17 105.78 1669.17 105.71V105.93C1669.17 117.42 1659.84 126.73 1648.33 126.73C1636.82 126.73 1627.49 117.42 1627.49 105.93C1627.49 105.86 1627.49 105.78 1627.49 105.71V105.93C1627.49 117.42 1618.16 126.73 1606.65 126.73C1595.14 126.73 1585.81 117.42 1585.81 105.93C1585.81 105.86 1585.81 105.78 1585.81 105.71V105.93C1585.81 117.42 1576.48 126.73 1564.97 126.73C1553.46 126.73 1544.13 117.42 1544.13 105.93C1544.13 105.86 1544.13 105.78 1544.13 105.71V105.93C1544.13 117.42 1534.8 126.73 1523.29 126.73C1511.78 126.73 1502.45 117.42 1502.45 105.93C1502.45 105.86 1502.45 105.78 1502.45 105.71V105.93C1502.45 117.42 1493.12 126.73 1481.61 126.73C1470.1 126.73 1460.77 117.42 1460.77 105.93C1460.77 105.86 1460.77 105.78 1460.77 105.71V105.93C1460.77 117.42 1451.44 126.73 1439.93 126.73C1428.42 126.73 1419.09 117.42 1419.09 105.93C1419.09 105.86 1419.09 105.78 1419.09 105.71V105.93C1419.09 117.42 1409.76 126.73 1398.25 126.73C1386.74 126.73 1377.41 117.42 1377.41 105.93C1377.41 105.86 1377.41 105.78 1377.41 105.71V105.93C1377.41 117.42 1368.08 126.73 1356.57 126.73C1345.06 126.73 1335.73 117.42 1335.73 105.93C1335.73 105.86 1335.73 105.78 1335.73 105.71V105.93C1335.73 117.42 1326.4 126.73 1314.89 126.73C1303.38 126.73 1294.05 117.42 1294.05 105.93C1294.05 105.86 1294.05 105.78 1294.05 105.71V105.93C1294.05 117.42 1284.72 126.73 1273.21 126.73C1261.7 126.73 1252.37 117.42 1252.37 105.93C1252.37 105.86 1252.37 105.78 1252.37 105.71V105.93C1252.37 117.42 1243.04 126.73 1231.53 126.73C1220.02 126.73 1210.69 117.42 1210.69 105.93C1210.69 105.86 1210.69 105.78 1210.69 105.71V105.93C1210.69 117.42 1201.36 126.73 1189.85 126.73C1178.34 126.73 1169.01 117.42 1169.01 105.93C1169.01 105.86 1169.01 105.78 1169.01 105.71V105.93C1169.01 117.42 1159.68 126.73 1148.17 126.73C1136.66 126.73 1127.33 117.42 1127.33 105.93C1127.33 105.86 1127.33 105.78 1127.33 105.71V105.93C1127.33 117.42 1118 126.73 1106.49 126.73C1094.98 126.73 1085.65 117.42 1085.65 105.93C1085.65 105.86 1085.65 105.78 1085.65 105.71V105.93C1085.65 117.42 1076.32 126.73 1064.81 126.73C1053.3 126.73 1043.97 117.42 1043.97 105.93C1043.97 105.86 1043.97 105.78 1043.97 105.71V105.93C1043.97 117.42 1034.64 126.73 1023.13 126.73C1011.62 126.73 1002.29 117.42 1002.29 105.93C1002.29 105.86 1002.29 105.78 1002.29 105.71V105.93C1002.29 117.42 992.96 126.73 981.45 126.73C969.94 126.73 960.61 117.42 960.61 105.93C960.61 105.86 960.61 105.78 960.61 105.71V105.93C960.61 117.42 951.28 126.73 939.77 126.73C928.26 126.73 918.93 117.42 918.93 105.93C918.93 105.86 918.93 105.78 918.93 105.71V105.93C918.93 117.42 909.6 126.73 898.09 126.73C886.58 126.73 877.25 117.42 877.25 105.93C877.25 105.86 877.25 105.78 877.25 105.71H876.16V105.93C876.16 117.42 866.83 126.73 855.32 126.73C843.81 126.73 834.48 117.42 834.48 105.93C834.48 105.86 834.48 105.78 834.48 105.71V105.93C834.48 117.42 825.15 126.73 813.64 126.73C802.13 126.73 792.8 117.42 792.8 105.93C792.8 105.86 792.8 105.78 792.8 105.71V105.93C792.8 117.42 783.47 126.73 771.96 126.73C760.45 126.73 751.12 117.42 751.12 105.93C751.12 105.86 751.12 105.78 751.12 105.71V105.93C751.12 117.42 741.79 126.73 730.28 126.73C718.77 126.73 709.44 117.42 709.44 105.93C709.44 105.86 709.44 105.78 709.44 105.71V105.93C709.44 117.42 699.99 126.73 688.33 126.73C676.67 126.73 667.22 117.42 667.22 105.93C667.22 105.86 667.22 105.78 667.22 105.71V105.93C667.22 117.42 657.89 126.73 646.38 126.73C634.87 126.73 625.54 117.42 625.54 105.93C625.54 105.86 625.54 105.78 625.54 105.71V105.93C625.54 117.42 616.21 126.73 604.7 126.73C593.19 126.73 583.86 117.42 583.86 105.93C583.86 105.86 583.86 105.78 583.86 105.71V105.93C583.86 117.42 574.53 126.73 563.02 126.73C551.51 126.73 542.18 117.42 542.18 105.93C542.18 105.86 542.18 105.78 542.18 105.71V105.93C542.18 117.42 532.85 126.73 521.34 126.73C509.83 126.73 500.5 117.42 500.5 105.93C500.5 117.42 491.17 126.73 479.66 126.73C468.15 126.73 458.82 117.42 458.82 105.93C458.82 117.42 449.49 126.73 437.98 126.73C426.47 126.73 417.14 117.42 417.14 105.93C417.14 117.42 407.81 126.73 396.3 126.73C384.79 126.73 375.46 117.42 375.46 105.93C375.46 117.42 366.13 126.73 354.62 126.73C343.11 126.73 333.78 117.42 333.78 105.93C333.78 117.42 324.45 126.73 312.94 126.73C301.43 126.73 292.1 117.42 292.1 105.93C292.1 117.42 282.77 126.73 271.26 126.73C259.75 126.73 250.42 117.42 250.42 105.93C250.42 117.42 241.09 126.73 229.58 126.73C218.07 126.73 208.74 117.42 208.74 105.93C208.74 117.42 199.41 126.73 187.9 126.73C176.39 126.73 167.06 117.42 167.06 105.93C167.06 117.42 157.73 126.73 146.22 126.73C134.71 126.73 125.38 117.42 125.38 105.93C125.38 117.42 116.05 126.73 104.54 126.73C93.03 126.73 83.7 117.42 83.7 105.93C83.7 117.42 74.37 126.73 62.86 126.73C51.35 126.73 42.02 117.42 42.02 105.93C42.02 117.42 32.69 126.73 21.18 126.73C9.67 126.73 0 117.42 0 105.94C0 104.95 0.07 103.98 0.21 103.02V0.900002H1920V105.71Z" fill="white"/>
</svg>
