<svg width="1920" height="683" viewBox="0 0 1920 683" fill="none" xmlns="http://www.w3.org/2000/svg">
<path d="M1896.41 24.4725C1920.47 -3.67392 1963.3 -7.44647 1992.03 16.0427C2000.76 23.1302 2007.54 32.3836 2011.73 42.9181C2032.54 22.7032 2064.06 18.0663 2089.68 30.4922L2095.24 225.137H2142.91V603.863H1293.06V503.886L778.31 682.618L744.86 604.677C732.01 604.727 719.3 602.053 707.53 596.806C705.2 595.759 702.94 594.6 700.75 593.4C702.93 598.698 704.33 604.29 704.89 609.995L628.38 431.68C625.08 432.839 621.69 433.734 618.24 434.354C619.31 450.644 606.61 468.195 586.75 477.184C578.28 481.068 569.08 483.011 559.79 482.848C544.89 482.451 532.85 476.015 527.33 465.521C521.51 470.666 514.89 474.805 507.75 477.774L612.86 586.526L-149.66 522.505V437.466C-161.46 432.29 -172.06 424.664 -180.78 415.075C-182.51 413.163 -184.12 411.19 -185.66 409.197C-185.74 414.932 -186.66 420.627 -188.39 426.097V119.68C-153.94 101.753 -110.83 106.746 -81.6096 133.468C-76.3096 118.938 -67.3996 106.034 -55.7596 96.0282C-17.5096 62.8179 41.0403 66.2243 75.0103 103.644C85.9703 115.541 93.4604 130.306 96.6404 146.281C99.8204 162.256 98.5703 178.82 93.0303 194.113C99.2603 193.646 105.52 194.124 111.61 195.537C126.53 198.913 139.63 207.953 148.23 220.796C165.53 180.833 210.26 157.71 254.88 168.062C301.82 178.952 331.86 223.033 325.22 268.781C340.31 264.683 356.16 264.388 371.38 267.937C385.09 271.008 397.92 277.231 408.89 286.138C419.86 295.046 428.67 306.404 434.64 319.318C437.77 320.457 440.82 321.809 443.76 323.355C452.07 301.462 476.95 285.925 503.63 286.637C506.06 286.708 508.48 286.911 510.89 287.257C534.69 290.724 557 306.567 571.2 329.934C577.11 326.619 583.44 324.219 589.99 322.806C614.91 296.978 653.1 286.677 687.68 298.371C686.83 282.895 689.92 267.449 696.65 253.538C718.65 207.546 773.65 186.853 819.5 207.343C834.22 213.789 846.89 224.273 856.09 237.624C865.29 250.976 870.66 266.655 871.59 282.935C877.12 279.976 883.04 277.871 889.18 276.682C904.18 273.712 919.74 276.661 932.68 284.949C932.82 241.285 964.72 201.902 1009.69 193.239C1056.99 184.128 1101.86 212.315 1113.76 256.945C1125.98 247.051 1140.39 240.339 1155.74 237.391C1169.51 234.625 1183.73 235.113 1197.28 238.824C1210.84 242.526 1223.38 249.349 1233.93 258.765C1237.24 258.541 1240.56 258.531 1243.88 258.765C1242.88 235.316 1259.58 210.963 1284.3 200.764C1286.55 199.838 1288.86 199.045 1291.2 198.384C1314.38 191.887 1341.06 197.327 1363.26 212.966C1370.73 203.072 1380.69 195.405 1392.08 190.788L1393.72 190.137C1425.91 177.773 1460.75 191.032 1472.07 219.718C1479.04 206.6 1493.3 196.971 1510.39 195.588L1511.67 195.506C1520.64 194.937 1529.61 196.839 1537.6 201.008C1547.52 183.589 1563.54 171.488 1580.9 168.428C1582.66 168.123 1584.43 167.919 1586.21 167.818C1605.73 166.719 1624.29 177.559 1630.84 193.422C1632.97 192.222 1635.17 191.165 1637.44 190.27C1641.55 180.681 1647.76 172.17 1655.61 165.408C1663.46 158.646 1672.73 153.805 1682.71 151.263C1693.79 148.335 1705.4 148.203 1716.55 150.877C1710.72 117.473 1731.8 84.5479 1765.96 75.5488C1798.45 66.9869 1831.68 82.9616 1845.21 111.86C1851.26 102.272 1860.66 95.3876 1871.52 92.6014C1875.95 91.432 1880.53 90.9439 1885.1 91.1472C1880.72 80.0636 1879.45 67.9529 1881.44 56.1778C1883.43 44.4026 1888.61 33.4207 1896.38 24.4623L1896.41 24.4725Z" fill="#ED3794"/>
</svg>
