<svg width="2418" height="671" viewBox="0 0 2418 671" fill="none" xmlns="http://www.w3.org/2000/svg">
<path d="M2465.01 23.4528C2495.31 -4.22721 2549.25 -7.93725 2585.43 15.1628C2596.43 22.1328 2604.97 31.2329 2610.24 41.5929C2636.45 21.7129 2676.15 17.1527 2708.41 29.3727L2715.41 220.793H2775.45V593.243H1705.17V494.923L1056.91 670.693L1014.78 594.043C998.597 594.093 982.59 591.463 967.767 586.303C964.833 585.273 961.986 584.133 959.229 582.953C961.974 588.163 963.737 593.663 964.442 599.273L868.088 423.913C863.932 425.053 859.662 425.933 855.317 426.543C856.665 442.563 840.671 459.823 815.66 468.663C804.993 472.483 793.407 474.393 781.707 474.233C762.942 473.843 747.779 467.513 740.828 457.193C733.498 462.253 725.161 466.323 716.169 469.243L848.542 576.193L-111.757 513.233V429.603C-126.617 424.513 -139.967 417.013 -150.948 407.583C-153.127 405.703 -155.155 403.763 -157.094 401.803C-157.195 407.443 -158.354 413.043 -160.532 418.423V117.083C-117.147 99.4527 -62.8551 104.363 -26.0562 130.643C-19.3815 116.353 -8.16045 103.663 6.49869 93.8229C54.6698 61.1629 128.406 64.5127 171.187 101.313C184.99 113.013 194.423 127.533 198.427 143.243C202.432 158.953 200.858 175.243 193.881 190.283C201.727 189.823 209.611 190.293 217.28 191.683C236.07 195.003 252.568 203.893 263.399 216.523C285.186 177.223 341.518 154.483 397.711 164.663C456.826 175.373 494.658 218.723 486.295 263.713C505.299 259.683 525.26 259.393 544.428 262.883C561.694 265.903 577.852 272.023 591.667 280.783C605.483 289.543 616.578 300.713 624.096 313.413C628.038 314.533 631.879 315.863 635.582 317.383C646.047 295.853 677.38 280.573 710.98 281.273C714.041 281.343 717.088 281.543 720.124 281.883C750.097 285.293 778.193 300.873 796.076 323.853C803.519 320.593 811.491 318.233 819.74 316.843C851.124 291.443 899.219 281.313 942.768 292.813C941.698 277.593 945.589 262.403 954.065 248.723C981.771 203.493 1051.04 183.143 1108.78 203.293C1127.32 209.633 1143.27 219.943 1154.86 233.073C1166.45 246.203 1173.21 261.623 1174.38 277.633C1181.34 274.723 1188.8 272.653 1196.53 271.483C1215.42 268.563 1235.02 271.463 1251.32 279.613C1251.49 236.673 1291.67 197.943 1348.3 189.423C1407.87 180.463 1464.38 208.183 1479.36 252.073C1494.75 242.343 1512.9 235.743 1532.23 232.843C1549.57 230.123 1567.48 230.603 1584.55 234.253C1601.62 237.893 1617.42 244.603 1630.7 253.863C1634.87 253.643 1639.05 253.633 1643.23 253.863C1641.97 230.803 1663 206.853 1694.14 196.823C1696.97 195.913 1699.88 195.133 1702.83 194.483C1732.02 188.093 1765.62 193.443 1793.58 208.823C1802.98 199.093 1815.53 191.553 1829.87 187.013L1831.94 186.373C1872.48 174.213 1916.35 187.253 1930.61 215.463C1939.39 202.563 1957.35 193.093 1978.87 191.733L1980.48 191.653C1991.78 191.093 2003.07 192.963 2013.14 197.063C2025.63 179.933 2045.8 168.033 2067.67 165.023C2069.88 164.723 2072.11 164.523 2074.35 164.423C2098.94 163.343 2122.31 174.003 2130.56 189.603C2133.24 188.423 2136.01 187.383 2138.87 186.503C2144.05 177.073 2151.87 168.703 2161.76 162.053C2171.64 155.403 2183.32 150.643 2195.88 148.143C2209.84 145.263 2224.46 145.133 2238.5 147.763C2231.16 114.913 2257.71 82.5328 2300.73 73.6828C2341.64 65.2628 2383.49 80.9727 2400.53 109.393C2408.15 99.9627 2419.99 93.1928 2433.67 90.4528C2439.25 89.3028 2445.01 88.8231 2450.77 89.0231C2445.25 78.1231 2443.65 66.213 2446.16 54.633C2448.67 43.053 2455.19 32.253 2464.97 23.443L2465.01 23.4528Z" fill="#F5A61D"/>
</svg>
